<mxfile host="65bd71144e">
    <diagram id="A62w2_2ctA0pnsxBLxJ6" name="GuestHouse Services ER">
        <mxGraphModel dx="742" dy="796" grid="1" gridSize="10" guides="1" tooltips="1" connect="1" arrows="1" fold="1" page="1" pageScale="1" pageWidth="850" pageHeight="1100" math="0" shadow="0">
            <root>
                <mxCell id="0"/>
                <mxCell id="1" parent="0"/>
                <mxCell id="4" value="Room" style="rounded=1;arcSize=10;whiteSpace=wrap;html=1;align=center;fillColor=#006666;strokeColor=#6c8ebf;fontFamily=JetBrains Mono;fontSize=14;gradientColor=#7EA6E0;gradientDirection=north;" parent="1" vertex="1">
                    <mxGeometry x="300" y="320" width="100" height="40" as="geometry"/>
                </mxCell>
                <mxCell id="5" value="" style="edgeStyle=orthogonalEdgeStyle;fontSize=14;html=1;endArrow=ERzeroToMany;endFill=1;entryX=1;entryY=0.5;entryDx=0;entryDy=0;fontFamily=JetBrains Mono;" parent="1" source="13" target="4" edge="1">
                    <mxGeometry width="100" height="100" relative="1" as="geometry">
                        <mxPoint x="460" y="500" as="sourcePoint"/>
                        <mxPoint x="580" y="460" as="targetPoint"/>
                    </mxGeometry>
                </mxCell>
                <mxCell id="6" value="_RoomType" style="shape=ext;margin=3;double=1;whiteSpace=wrap;html=1;align=center;fillColor=#f8cecc;strokeColor=#b85450;gradientDirection=south;gradientColor=#ea6b66;fontFamily=JetBrains Mono;fontStyle=0;fontSize=14;" parent="1" vertex="1">
                    <mxGeometry x="170" y="400" width="100" height="40" as="geometry"/>
                </mxCell>
                <mxCell id="7" value="" style="edgeStyle=orthogonalEdgeStyle;fontSize=14;html=1;endArrow=ERzeroToMany;endFill=1;exitX=1;exitY=0.5;exitDx=0;exitDy=0;fontFamily=JetBrains Mono;entryX=0.25;entryY=1;entryDx=0;entryDy=0;" parent="1" source="6" target="4" edge="1">
                    <mxGeometry width="100" height="100" relative="1" as="geometry">
                        <mxPoint x="260" y="580" as="sourcePoint"/>
                        <mxPoint x="310" y="380" as="targetPoint"/>
                    </mxGeometry>
                </mxCell>
                <mxCell id="9" value="booking" style="shape=rhombus;perimeter=rhombusPerimeter;whiteSpace=wrap;html=1;align=center;fillColor=#006600;strokeColor=#6c8ebf;fontFamily=JetBrains Mono;fontSize=14;gradientColor=#97D077;gradientDirection=north;" parent="1" vertex="1">
                    <mxGeometry x="290" y="180" width="120" height="60" as="geometry"/>
                </mxCell>
                <mxCell id="10" value="" style="fontSize=14;html=1;endArrow=ERzeroToMany;endFill=1;entryX=0.5;entryY=1;entryDx=0;entryDy=0;exitX=0.5;exitY=0;exitDx=0;exitDy=0;fontFamily=JetBrains Mono;" parent="1" source="4" target="9" edge="1">
                    <mxGeometry width="100" height="100" relative="1" as="geometry">
                        <mxPoint x="260" y="350" as="sourcePoint"/>
                        <mxPoint x="360" y="250" as="targetPoint"/>
                    </mxGeometry>
                </mxCell>
                <mxCell id="11" value="" style="fontSize=14;html=1;endArrow=ERzeroToMany;endFill=1;entryX=0.5;entryY=0;entryDx=0;entryDy=0;fontFamily=JetBrains Mono;exitX=0.5;exitY=1;exitDx=0;exitDy=0;" parent="1" source="12" target="9" edge="1">
                    <mxGeometry width="100" height="100" relative="1" as="geometry">
                        <mxPoint x="350" y="120" as="sourcePoint"/>
                        <mxPoint x="450" y="90" as="targetPoint"/>
                    </mxGeometry>
                </mxCell>
                <mxCell id="12" value="Guest" style="rounded=1;arcSize=10;whiteSpace=wrap;html=1;align=center;fillColor=#006666;strokeColor=#6c8ebf;fontFamily=JetBrains Mono;fontSize=14;gradientColor=#7EA6E0;gradientDirection=north;" vertex="1" parent="1">
                    <mxGeometry x="300" y="80" width="100" height="40" as="geometry"/>
                </mxCell>
                <mxCell id="13" value="GuestHouse" style="rounded=1;arcSize=10;whiteSpace=wrap;html=1;align=center;fillColor=#006666;strokeColor=#6c8ebf;fontFamily=JetBrains Mono;fontSize=14;gradientColor=#7EA6E0;gradientDirection=north;" vertex="1" parent="1">
                    <mxGeometry x="490" y="400" width="100" height="40" as="geometry"/>
                </mxCell>
                <mxCell id="14" value="Staff" style="rounded=1;arcSize=10;whiteSpace=wrap;html=1;align=center;fillColor=#006666;strokeColor=#6c8ebf;fontFamily=JetBrains Mono;fontSize=14;gradientColor=#7EA6E0;gradientDirection=north;" vertex="1" parent="1">
                    <mxGeometry x="300" y="620" width="100" height="40" as="geometry"/>
                </mxCell>
                <mxCell id="15" value="maintenance" style="shape=rhombus;perimeter=rhombusPerimeter;whiteSpace=wrap;html=1;align=center;fillColor=#006600;strokeColor=#6c8ebf;fontFamily=JetBrains Mono;fontSize=14;gradientColor=#97D077;gradientDirection=north;" vertex="1" parent="1">
                    <mxGeometry x="290" y="460" width="120" height="60" as="geometry"/>
                </mxCell>
                <mxCell id="16" value="" style="fontSize=14;html=1;endArrow=ERzeroToMany;endFill=1;exitX=0.5;exitY=1;exitDx=0;exitDy=0;fontFamily=JetBrains Mono;entryX=0.5;entryY=0;entryDx=0;entryDy=0;" edge="1" parent="1" source="4" target="15">
                    <mxGeometry width="100" height="100" relative="1" as="geometry">
                        <mxPoint x="380" y="470" as="sourcePoint"/>
                        <mxPoint x="370" y="400" as="targetPoint"/>
                        <Array as="points"/>
                    </mxGeometry>
                </mxCell>
                <mxCell id="17" value="" style="fontSize=14;html=1;endArrow=ERzeroToMany;endFill=1;entryX=0.5;entryY=1;entryDx=0;entryDy=0;exitX=0.5;exitY=0;exitDx=0;exitDy=0;fontFamily=JetBrains Mono;" edge="1" parent="1" source="14" target="15">
                    <mxGeometry width="100" height="100" relative="1" as="geometry">
                        <mxPoint x="470" y="580" as="sourcePoint"/>
                        <mxPoint x="470" y="500" as="targetPoint"/>
                        <Array as="points"/>
                    </mxGeometry>
                </mxCell>
                <mxCell id="18" value="_Designation&lt;br&gt;" style="shape=ext;margin=3;double=1;whiteSpace=wrap;html=1;align=center;fillColor=#f8cecc;strokeColor=#b85450;gradientDirection=south;gradientColor=#ea6b66;fontFamily=JetBrains Mono;fontStyle=0;fontSize=14;" vertex="1" parent="1">
                    <mxGeometry x="440" y="680" width="120" height="40" as="geometry"/>
                </mxCell>
                <mxCell id="19" value="" style="edgeStyle=orthogonalEdgeStyle;fontSize=12;html=1;endArrow=ERoneToMany;entryX=0.75;entryY=1;entryDx=0;entryDy=0;exitX=0;exitY=0.5;exitDx=0;exitDy=0;" edge="1" parent="1" source="18" target="14">
                    <mxGeometry width="100" height="100" relative="1" as="geometry">
                        <mxPoint x="280" y="810" as="sourcePoint"/>
                        <mxPoint x="380" y="710" as="targetPoint"/>
                    </mxGeometry>
                </mxCell>
                <mxCell id="20" value="_StaffShift" style="shape=ext;margin=3;double=1;whiteSpace=wrap;html=1;align=center;fillColor=#f8cecc;strokeColor=#b85450;gradientDirection=south;gradientColor=#ea6b66;fontFamily=JetBrains Mono;fontStyle=0;fontSize=14;" vertex="1" parent="1">
                    <mxGeometry x="135" y="680" width="120" height="40" as="geometry"/>
                </mxCell>
                <mxCell id="22" value="" style="edgeStyle=orthogonalEdgeStyle;fontSize=12;html=1;endArrow=ERzeroToMany;endFill=1;entryX=0.25;entryY=1;entryDx=0;entryDy=0;exitX=1;exitY=0.5;exitDx=0;exitDy=0;" edge="1" parent="1" source="20" target="14">
                    <mxGeometry width="100" height="100" relative="1" as="geometry">
                        <mxPoint x="255" y="820" as="sourcePoint"/>
                        <mxPoint x="355" y="720" as="targetPoint"/>
                    </mxGeometry>
                </mxCell>
                <mxCell id="23" value="DutyLog" style="rounded=1;arcSize=10;whiteSpace=wrap;html=1;align=center;fillColor=#006666;strokeColor=#6c8ebf;fontFamily=JetBrains Mono;fontSize=14;gradientColor=#7EA6E0;gradientDirection=north;" vertex="1" parent="1">
                    <mxGeometry x="300" y="790" width="100" height="40" as="geometry"/>
                </mxCell>
                <mxCell id="24" value="" style="edgeStyle=orthogonalEdgeStyle;fontSize=12;html=1;endArrow=ERzeroToMany;endFill=1;entryX=0.5;entryY=0;entryDx=0;entryDy=0;exitX=0.5;exitY=1;exitDx=0;exitDy=0;" edge="1" parent="1" source="14" target="23">
                    <mxGeometry width="100" height="100" relative="1" as="geometry">
                        <mxPoint x="350" y="750" as="sourcePoint"/>
                        <mxPoint x="420" y="710" as="targetPoint"/>
                    </mxGeometry>
                </mxCell>
                <mxCell id="25" value="FoodItem" style="rounded=1;arcSize=10;whiteSpace=wrap;html=1;align=center;fillColor=#006666;strokeColor=#6c8ebf;fontFamily=JetBrains Mono;fontSize=14;gradientColor=#7EA6E0;gradientDirection=north;" vertex="1" parent="1">
                    <mxGeometry x="670" y="80" width="100" height="40" as="geometry"/>
                </mxCell>
                <mxCell id="26" value="FoodOrders" style="shape=rhombus;perimeter=rhombusPerimeter;whiteSpace=wrap;html=1;align=center;fillColor=#006600;strokeColor=#6c8ebf;fontFamily=JetBrains Mono;fontSize=14;gradientColor=#97D077;gradientDirection=north;" vertex="1" parent="1">
                    <mxGeometry x="480" y="70" width="120" height="60" as="geometry"/>
                </mxCell>
                <mxCell id="27" value="" style="edgeStyle=entityRelationEdgeStyle;fontSize=12;html=1;endArrow=ERmany;startArrow=ERmany;entryX=0;entryY=0.5;entryDx=0;entryDy=0;exitX=1;exitY=0.5;exitDx=0;exitDy=0;" edge="1" parent="1" source="26" target="25">
                    <mxGeometry width="100" height="100" relative="1" as="geometry">
                        <mxPoint x="540" y="310" as="sourcePoint"/>
                        <mxPoint x="640" y="210" as="targetPoint"/>
                    </mxGeometry>
                </mxCell>
                <mxCell id="28" value="" style="edgeStyle=entityRelationEdgeStyle;fontSize=12;html=1;endArrow=ERzeroToMany;endFill=1;exitX=1;exitY=0.5;exitDx=0;exitDy=0;" edge="1" parent="1" source="12" target="26">
                    <mxGeometry width="100" height="100" relative="1" as="geometry">
                        <mxPoint x="460" y="180" as="sourcePoint"/>
                        <mxPoint x="440" y="100" as="targetPoint"/>
                    </mxGeometry>
                </mxCell>
                <mxCell id="fJUake4IgelBlmuoAZ97-28" value="_PaymentOption" style="shape=ext;margin=3;double=1;whiteSpace=wrap;html=1;align=center;fillColor=#f8cecc;strokeColor=#b85450;gradientDirection=south;gradientColor=#ea6b66;fontFamily=JetBrains Mono;fontStyle=0;fontSize=14;" vertex="1" parent="1">
                    <mxGeometry x="470" y="190" width="140" height="40" as="geometry"/>
                </mxCell>
                <mxCell id="fJUake4IgelBlmuoAZ97-30" value="" style="edgeStyle=entityRelationEdgeStyle;fontSize=12;html=1;endArrow=ERzeroToMany;endFill=1;entryX=0;entryY=0.5;entryDx=0;entryDy=0;" edge="1" parent="1" source="9" target="fJUake4IgelBlmuoAZ97-28">
                    <mxGeometry width="100" height="100" relative="1" as="geometry">
                        <mxPoint x="410" y="260" as="sourcePoint"/>
                        <mxPoint x="490" y="260" as="targetPoint"/>
                    </mxGeometry>
                </mxCell>
                <mxCell id="fJUake4IgelBlmuoAZ97-31" value="" style="fontSize=12;html=1;endArrow=ERzeroToMany;endFill=1;exitX=0.5;exitY=1;exitDx=0;exitDy=0;entryX=0.5;entryY=0;entryDx=0;entryDy=0;" edge="1" parent="1" source="26" target="fJUake4IgelBlmuoAZ97-28">
                    <mxGeometry width="100" height="100" relative="1" as="geometry">
                        <mxPoint x="610" y="160" as="sourcePoint"/>
                        <mxPoint x="690" y="160" as="targetPoint"/>
                    </mxGeometry>
                </mxCell>
            </root>
        </mxGraphModel>
    </diagram>
    <diagram id="AiankkmyPBLTfbrS7Nh5" name="MarketPlace services ER">
        <mxGraphModel dx="742" dy="796" grid="1" gridSize="10" guides="1" tooltips="1" connect="1" arrows="1" fold="1" page="1" pageScale="1" pageWidth="850" pageHeight="1100" math="0" shadow="0">
            <root>
                <mxCell id="Zc2fgOWZUQ8oTwtNAW3y-0"/>
                <mxCell id="Zc2fgOWZUQ8oTwtNAW3y-1" parent="Zc2fgOWZUQ8oTwtNAW3y-0"/>
            </root>
        </mxGraphModel>
    </diagram>
</mxfile>